<?xml version="1.0" standalone="no"?>
<!DOCTYPE svg PUBLIC "-//W3C//DTD SVG 20010904//EN"
 "http://www.w3.org/TR/2001/REC-SVG-20010904/DTD/svg10.dtd">
<svg version="1.0" xmlns="http://www.w3.org/2000/svg"
 width="32.000000pt" height="32.000000pt" viewBox="0 0 32.000000 32.000000"
 preserveAspectRatio="xMidYMid meet">

<g transform="translate(0.000000,32.000000) scale(0.100000,-0.100000)"
fill="#000000" stroke="none">
<path d="M138 243 c6 -2 18 -2 25 0 6 3 1 5 -13 5 -14 0 -19 -2 -12 -5z"/>
<path d="M155 222 c-11 -2 -27 -11 -36 -19 -14 -11 -18 -12 -22 -1 -3 9 -7 8
-12 -5 -4 -10 -3 -28 3 -40 l11 -22 0 21 c1 27 22 45 64 53 17 4 27 9 22 12
-6 3 -19 4 -30 1z"/>
<path d="M163 193 c13 -3 17 -11 14 -23 -3 -12 0 -17 8 -14 7 3 15 13 17 22 4
13 -2 17 -26 18 -17 1 -23 -1 -13 -3z"/>
<path d="M211 168 c-1 -9 -9 -22 -18 -27 -10 -6 -13 -11 -7 -11 17 0 37 27 31
42 -4 8 -6 7 -6 -4z"/>
<path d="M140 151 c0 -6 4 -13 10 -16 6 -3 7 1 4 9 -7 18 -14 21 -14 7z"/>
<path d="M106 115 c4 -10 0 -13 -15 -10 -13 2 -19 0 -15 -6 3 -6 8 -8 11 -5 3
3 14 1 24 -5 13 -6 19 -6 19 1 0 5 20 10 45 10 25 0 45 4 45 9 0 5 -20 6 -44
4 -26 -3 -46 -1 -50 6 -10 16 -26 13 -20 -4z"/>
<path d="M152 71 c-11 -7 -11 -9 0 -14 9 -3 15 1 15 9 0 8 -1 14 -1 14 -1 0
-7 -4 -14 -9z"/>
</g>
</svg>
